<svg width="28" height="28" viewBox="0 0 28 28" fill="none" xmlns="http://www.w3.org/2000/svg">
<rect width="28" height="28" rx="4" fill="#FF002F"/>
<path d="M24.5818 9.5702L14.2515 3.27022C14.0975 3.17661 13.9012 3.17661 13.7472 3.27022L3.41695 9.5702C3.28172 9.65302 3.20001 9.79612 3.20001 9.95002V24.35C3.20001 24.5984 3.41039 24.8 3.66959 24.8H10.713V20.75C10.713 19.013 12.1874 17.6 13.9999 17.6C15.8124 17.6 17.2868 19.013 17.2868 20.75V24.8H24.3302C24.5894 24.8 24.7998 24.5984 24.7998 24.35V9.95002C24.7987 9.79612 24.717 9.65302 24.5818 9.5702ZM8.83374 19.85C8.83374 20.0984 8.62337 20.3 8.36417 20.3H5.54682C5.28762 20.3 5.07725 20.0984 5.07725 19.85V17.15C5.07725 16.9016 5.28762 16.7 5.54682 16.7H8.36417C8.62337 16.7 8.83374 16.9016 8.83374 17.15V19.85ZM8.83374 14.45C8.83374 14.6984 8.62337 14.9 8.36417 14.9H5.54682C5.28762 14.9 5.07725 14.6984 5.07725 14.45V11.75C5.07725 11.5016 5.28762 11.3 5.54682 11.3H8.36417C8.62337 11.3 8.83374 11.5016 8.83374 11.75V14.45ZM13.9989 6.80001C14.7756 6.80001 15.4076 7.40569 15.4076 8.15001C15.4076 8.89432 14.7756 9.5 13.9989 9.5C13.2223 9.5 12.5902 8.89432 12.5902 8.15001C12.5902 7.40573 13.2223 6.80001 13.9989 6.80001ZM16.3467 15.35C16.3467 15.5984 16.1363 15.8 15.8771 15.8H12.1207C11.8615 15.8 11.6511 15.5984 11.6511 15.35V11.75C11.6511 11.5016 11.8615 11.3 12.1207 11.3H15.8771C16.1363 11.3 16.3467 11.5016 16.3467 11.75V15.35ZM22.9205 19.85C22.9205 20.0984 22.7101 20.3 22.4509 20.3H19.6336C19.3744 20.3 19.164 20.0984 19.164 19.85V17.15C19.164 16.9016 19.3744 16.7 19.6336 16.7H22.4509C22.7101 16.7 22.9205 16.9016 22.9205 17.15V19.85ZM22.9205 14.45C22.9205 14.6984 22.7101 14.9 22.4509 14.9H19.6336C19.3744 14.9 19.164 14.6984 19.164 14.45V11.75C19.164 11.5016 19.3744 11.3 19.6336 11.3H22.4509C22.7101 11.3 22.9205 11.5016 22.9205 11.75V14.45Z" fill="white"/>
</svg>
