<svg width="28" height="28" viewBox="0 0 28 28" fill="none" xmlns="http://www.w3.org/2000/svg">
<rect width="28" height="28" rx="4" fill="#00E676"/>
<path d="M24.799 11.2937C24.7969 11.2622 24.7846 11.2325 24.7764 11.2019C24.7692 11.1731 24.7671 11.1434 24.7538 11.1173C24.7538 11.1173 24.7527 11.1128 24.7517 11.1101L21.7133 5.3501V4.55001C21.7133 3.8057 21.0211 3.20001 20.1704 3.20001H7.82756C6.97691 3.20001 6.2847 3.8057 6.2847 4.55001V5.35103L3.24629 11.111C3.24629 11.111 3.24527 11.1155 3.24421 11.1191C3.23086 11.1452 3.22878 11.174 3.2216 11.2037C3.21336 11.2343 3.20101 11.264 3.20101 11.2946C3.20101 11.2973 3.2 11.3 3.2 11.3C3.2 12.0317 3.60833 12.677 4.22856 13.0883V24.35C4.22856 24.5984 4.45897 24.8 4.74286 24.8H23.2571C23.541 24.8 23.7714 24.5984 23.7714 24.35V13.0883C24.3917 12.677 24.8 12.0317 24.8 11.3C24.8 11.2973 24.799 11.2937 24.799 11.2937ZM7.31326 4.55001C7.31326 4.30161 7.54367 4.1 7.82756 4.1H20.1704C20.4543 4.1 20.6847 4.30161 20.6847 4.55001V5.00003H7.31326V4.55001ZM10.399 18.5H5.2561V13.5041C5.42273 13.5338 5.59451 13.55 5.7704 13.55C6.61487 13.55 7.35853 13.1873 7.82756 12.6365C8.29659 13.1882 9.04024 13.55 9.88472 13.55C10.0606 13.55 10.2324 13.5338 10.399 13.5041L10.399 18.5ZM16.5704 13.1V23.9H11.4275V13.1C11.4275 13.0964 11.4255 13.0937 11.4255 13.0901C11.6219 12.9605 11.7957 12.8084 11.9418 12.6356C12.4108 13.1873 13.1545 13.5491 13.9989 13.5491C14.8434 13.5491 15.5871 13.1864 16.0561 12.6356C16.2032 12.8084 16.377 12.9605 16.5724 13.0901C16.5725 13.0928 16.5704 13.0955 16.5704 13.1ZM22.7418 18.5H17.599V13.5041C17.7656 13.5338 17.9374 13.55 18.1133 13.55C18.9577 13.55 19.7014 13.1873 20.1704 12.6365C20.6394 13.1882 21.3831 13.55 22.2276 13.55C22.4035 13.55 22.5752 13.5338 22.7419 13.5041L22.7418 18.5Z" fill="white"/>
</svg>
