<svg width="38" height="38" viewBox="0 0 38 38" fill="none" xmlns="http://www.w3.org/2000/svg">
<g clip-path="url(#clip0_548_2826)">
<circle cx="19" cy="19" r="19" fill="#FF602C"/>
<path d="M23.9526 19.0047C25.0521 18.1396 25.8547 16.9533 26.2486 15.6109C26.6426 14.2684 26.6083 12.8366 26.1506 11.5145C25.6928 10.1925 24.8344 9.04594 23.6947 8.23447C22.555 7.42301 21.1908 6.98694 19.7917 6.98694C18.3927 6.98694 17.0284 7.42301 15.8887 8.23447C14.7491 9.04594 13.8906 10.1925 13.4329 11.5145C12.9752 12.8366 12.9409 14.2684 13.3348 15.6109C13.7288 16.9533 14.5313 18.1396 15.6309 19.0047C13.7468 19.7595 12.1029 21.0115 10.8743 22.6271C9.64583 24.2427 8.87877 26.1615 8.65496 28.1788C8.63876 28.326 8.65172 28.4751 8.69312 28.6173C8.73451 28.7596 8.80352 28.8923 8.89621 29.0079C9.0834 29.2414 9.35567 29.3909 9.65312 29.4237C9.95057 29.4564 10.2488 29.3696 10.4823 29.1824C10.7158 28.9952 10.8653 28.7229 10.898 28.4255C11.1443 26.2331 12.1897 24.2083 13.8344 22.738C15.4792 21.2677 17.608 20.4548 19.8142 20.4548C22.0203 20.4548 24.1491 21.2677 25.7939 22.738C27.4387 24.2083 28.484 26.2331 28.7303 28.4255C28.7608 28.7011 28.8923 28.9556 29.0994 29.1399C29.3065 29.3243 29.5746 29.4253 29.8518 29.4237H29.9752C30.2692 29.3898 30.5379 29.2412 30.7228 29.0101C30.9076 28.779 30.9937 28.4842 30.9621 28.19C30.7373 26.167 29.9661 24.2433 28.7313 22.6252C27.4964 21.0071 25.8445 19.7555 23.9526 19.0047ZM19.7917 18.2084C18.9045 18.2084 18.0371 17.9453 17.2994 17.4523C16.5616 16.9594 15.9866 16.2588 15.6471 15.439C15.3076 14.6193 15.2187 13.7173 15.3918 12.8471C15.5649 11.9769 15.9922 11.1775 16.6196 10.5501C17.247 9.92272 18.0463 9.49545 18.9165 9.32236C19.7868 9.14926 20.6888 9.2381 21.5085 9.57764C22.3282 9.91719 23.0289 10.4922 23.5218 11.2299C24.0147 11.9677 24.2778 12.835 24.2778 13.7223C24.2778 14.9121 23.8052 16.0531 22.9639 16.8944C22.1226 17.7357 20.9815 18.2084 19.7917 18.2084Z" fill="white"/>
</g>
<defs>
<clipPath id="clip0_548_2826">
<rect width="38" height="38" fill="white"/>
</clipPath>
</defs>
</svg>
