<svg width="20" height="23" viewBox="0 0 20 23" fill="none" xmlns="http://www.w3.org/2000/svg">
<g clip-path="url(#clip0_742_8557)">
<path d="M10 11.5C13.1562 11.5 15.7143 8.92598 15.7143 5.75C15.7143 2.57402 13.1562 0 10 0C6.84375 0 4.28571 2.57402 4.28571 5.75C4.28571 8.92598 6.84375 11.5 10 11.5ZM10 1.4375C12.3616 1.4375 14.2857 3.37363 14.2857 5.75C14.2857 8.12637 12.3616 10.0625 10 10.0625C7.63839 10.0625 5.71429 8.12637 5.71429 5.75C5.71429 3.37363 7.63839 1.4375 10 1.4375ZM14.1027 13.6652L12.3304 19.8555L10.817 15.2869L11.933 14.1639C12.3839 13.7102 12.0625 12.9375 11.4286 12.9375H8.57143C7.93304 12.9375 7.61607 13.7102 8.06696 14.1639L9.18304 15.2869L7.66964 19.8555L5.89732 13.6697C2.62946 13.7236 0 16.3965 0 19.6938V20.8438C0 22.0342 0.959821 23 2.14286 23H17.8571C19.0402 23 20 22.0342 20 20.8438V19.6938C20 16.3965 17.3705 13.7236 14.1027 13.6652ZM2.14286 21.5625C1.75 21.5625 1.42857 21.2391 1.42857 20.8438V19.6938C1.42857 17.5734 2.89286 15.7631 4.86161 15.251L6.67411 21.5625H2.14286ZM8.61161 21.5625L10 17.3668L11.3884 21.5625H8.61161ZM18.5714 20.8438C18.5714 21.2391 18.25 21.5625 17.8571 21.5625H13.3259L15.1339 15.251C17.1027 15.7631 18.567 17.5734 18.567 19.6938V20.8438H18.5714Z" fill="#FF602C"/>
</g>
<defs>
<clipPath id="clip0_742_8557">
<rect width="20" height="23" fill="white"/>
</clipPath>
</defs>
</svg>
