<svg width="44" height="11" viewBox="0 0 44 11" fill="none" xmlns="http://www.w3.org/2000/svg">
<g clip-path="url(#clip0_2_256)">
<path d="M34.8307 2.44116V7.50418L39.0574 4.94253L34.8307 2.44116Z" fill="#5EC3B2"/>
<path d="M34.8307 7.50403L39.0574 10.0054V4.94238L34.8307 7.50403Z" fill="#33A6AF"/>
<path d="M39.0574 0L34.8307 2.4411L39.0574 4.94247V0Z" fill="#66C39B"/>
<path d="M43.2547 2.4411L39.0574 0V4.94247L43.2547 2.4411Z" fill="#5EC3B2"/>
<path d="M39.0574 4.94253L43.2547 7.50418V2.44116L39.0574 4.94253Z" fill="#33A6AF"/>
<path d="M39.0574 4.94238V10.0054L43.2547 7.50403L39.0574 4.94238Z" fill="#1B959F"/>
<path d="M36.2396 9.3125H34.684V10.9098H36.2396V9.3125Z" fill="#33A6AF"/>
<path d="M3.60006 4.85205C4.8035 4.85205 6.09499 5.51506 6.32981 7.11232H4.8622C4.65674 6.50958 4.21646 6.26849 3.60006 6.26849C2.7195 6.26849 2.13246 6.96164 2.13246 7.92602C2.13246 8.79999 2.69015 9.58356 3.60006 9.58356C4.21646 9.58356 4.71544 9.28219 4.89155 8.64931H6.35916C6.12434 10.337 4.8622 11.0301 3.60006 11.0301C2.13246 11 0.635498 9.9452 0.635498 7.92602C0.635498 5.87671 2.13246 4.85205 3.60006 4.85205ZM10.7033 6.29863H8.58992V7.14246H10.5272V8.49863H8.58992V9.46301H10.762V10.8794H7.09296V4.94246H10.7326V6.29863H10.7033ZM13.1688 7.83561V10.9096H11.6425V4.91232H12.1122L15.1354 7.86575V4.94246H16.6618V10.9397H16.2215L13.1688 7.83561ZM17.3075 6.29863V4.94246H21.6223V6.29863H20.2134V10.9096H18.7458V6.29863H17.3075ZM22.1799 8.95068V4.94246H23.7063V8.92054C23.7063 9.40273 24.1172 9.61369 24.5575 9.61369C24.9684 9.61369 25.4087 9.40273 25.4087 8.92054V4.94246H26.9056V8.95068C26.9056 10.2767 25.7903 11 24.5575 11C23.3247 11 22.1799 10.2767 22.1799 8.95068ZM33.0696 4.94246H33.5979V10.9397H32.0716V8.19726L30.8388 9.52328H30.6627L29.4299 8.19726V10.9397H27.933V4.94246H28.4613L30.7801 7.53424L33.0696 4.94246Z" fill="white"/>
<path d="M38.852 2.26025C40.5544 2.26025 41.435 3.61642 41.435 4.94245C41.4644 6.29861 40.5838 7.68491 38.852 7.68491H36.8561V2.26025H38.852ZM38.852 6.38902C39.6739 6.38902 40.0848 5.66573 40.0848 4.94245C40.0848 4.21916 39.6739 3.52601 38.852 3.52601H38.2356V6.38902H38.852Z" fill="white"/>
</g>
<defs>
<clipPath id="clip0_2_256">
<rect width="42.6193" height="11" fill="white" transform="translate(0.635498)"/>
</clipPath>
</defs>
</svg>
