<svg width="20" height="20" viewBox="0 0 20 20" fill="none" xmlns="http://www.w3.org/2000/svg">
<g clip-path="url(#clip0_469_4133)">
<path d="M0.78125 0.937509H1.17188C1.43074 0.937509 1.64063 1.14739 1.64063 1.40626V5.10255C3.32797 2.22841 6.45465 0.301376 10.031 0.312548C15.3586 0.329228 19.6958 4.68786 19.6875 10.0155C19.6791 15.3586 15.3451 19.6875 10 19.6875C7.50289 19.6875 5.22648 18.7427 3.50867 17.1911C3.30895 17.0107 3.29953 16.7004 3.48984 16.5101L3.76598 16.234C3.94188 16.0581 4.22492 16.0499 4.4098 16.2163C5.88992 17.5484 7.84902 18.3594 10 18.3594C14.5994 18.3594 18.3594 14.6355 18.3594 10C18.3594 5.40063 14.6355 1.64063 10 1.64063C6.7632 1.64063 3.95559 3.47958 2.56684 6.17188H6.40625C6.66512 6.17188 6.875 6.38177 6.875 6.64063V7.03126C6.875 7.29013 6.66512 7.50001 6.40625 7.50001H0.78125C0.522383 7.50001 0.3125 7.29013 0.3125 7.03126V1.40626C0.3125 1.14739 0.522383 0.937509 0.78125 0.937509ZM13.3456 13.2514L13.5294 12.9986C13.6817 12.7893 13.6354 12.4961 13.426 12.3438L10.625 10.3068V4.53126C10.625 4.27239 10.4151 4.06251 10.1563 4.06251H9.84375C9.58488 4.06251 9.375 4.27239 9.375 4.53126V10.9433L12.6908 13.3547C12.9002 13.507 13.1933 13.4608 13.3456 13.2514Z" fill="#FF602C"/>
</g>
<defs>
<clipPath id="clip0_469_4133">
<rect width="20" height="20" fill="white"/>
</clipPath>
</defs>
</svg>
