<svg width="24" height="24" viewBox="0 0 24 24" fill="none" xmlns="http://www.w3.org/2000/svg">
<circle cx="12" cy="12" r="12" fill="#FF002F"/>
<path d="M12.0994 15.04C11.8647 15.04 11.6674 14.96 11.5074 14.8C11.358 14.6294 11.2834 14.4374 11.2834 14.224V6.33603C11.2834 6.10136 11.358 5.90403 11.5074 5.74403C11.6674 5.58403 11.8647 5.50403 12.0994 5.50403C12.334 5.50403 12.526 5.58403 12.6754 5.74403C12.8354 5.90403 12.9154 6.10136 12.9154 6.33603V14.224C12.9154 14.448 12.83 14.64 12.6594 14.8C12.4994 14.96 12.3127 15.04 12.0994 15.04ZM12.0994 18C11.8007 18 11.5394 17.8934 11.3154 17.68C11.102 17.4667 10.9954 17.2054 10.9954 16.896C10.9954 16.5867 11.102 16.3254 11.3154 16.112C11.5394 15.888 11.8007 15.776 12.0994 15.776C12.4087 15.776 12.67 15.888 12.8834 16.112C13.0967 16.3254 13.2034 16.5867 13.2034 16.896C13.2034 17.2054 13.0914 17.4667 12.8674 17.68C12.654 17.8934 12.398 18 12.0994 18Z" fill="white"/>
</svg>
