<svg width="32" height="32" viewBox="0 0 32 32" fill="none" xmlns="http://www.w3.org/2000/svg">
<path d="M16 31C24.2843 31 31 24.2843 31 16C31 7.71573 24.2843 1 16 1C7.71573 1 1 7.71573 1 16C1 24.2843 7.71573 31 16 31Z" fill="#FF602C"/>
<path fill-rule="evenodd" clip-rule="evenodd" d="M18.02 9.50212C18.02 9.50212 15.7935 9.35667 15.2227 11.4745C15.2227 11.4745 15.016 12.0301 15.0444 13.3987L13 13.4046V15.1949L15.0444 15.189V22.5H17.6504V15.1949L19.7172 15.1949V13.3987L17.6504 13.3987V12.423C17.6504 11.7905 18.0018 11.1856 19.0296 11.1856H20V9.50212H18.02Z" fill="white"/>
</svg>
