<svg width="32" height="32" viewBox="0 0 32 32" fill="none" xmlns="http://www.w3.org/2000/svg">
<g clip-path="url(#clip0_1208_12506)">
<path d="M16 0C7.16337 0 0 7.16337 0 16C0 24.8366 7.16337 32 16 32C24.8366 32 32 24.8366 32 16C32 7.16337 24.8366 0 16 0Z" fill="#FF602C"/>
<path d="M22.9023 10.9785L20.9785 12.8828C19.7611 11.5938 18.3418 10.9492 16.7207 10.9492C15.3079 10.9492 14.123 11.418 13.166 12.3555C12.2155 13.293 11.7402 14.4323 11.7402 15.7734C11.7402 17.1602 12.235 18.3353 13.2246 19.2988C14.2142 20.2624 15.4349 20.7441 16.8867 20.7441C17.8307 20.7441 18.625 20.5456 19.2695 20.1484C19.9206 19.7513 20.4447 19.1296 20.8418 18.2832H16.6816V15.7148H23.9082L23.9277 16.3203C23.9277 17.5768 23.6022 18.7682 22.9512 19.8945C22.3001 21.0208 21.457 21.8802 20.4219 22.4727C19.3867 23.0651 18.1725 23.3613 16.7793 23.3613C15.2884 23.3613 13.957 23.0391 12.7852 22.3945C11.6198 21.7435 10.6953 20.819 10.0117 19.6211C9.33464 18.4232 8.99609 17.1309 8.99609 15.7441C8.99609 13.8431 9.62435 12.1895 10.8809 10.7832C12.3717 9.11003 14.3118 8.27344 16.7012 8.27344C17.9512 8.27344 19.1198 8.50456 20.207 8.9668C21.125 9.35742 22.0234 10.028 22.9023 10.9785Z" fill="white"/>
</g>
<defs>
<clipPath id="clip0_1208_12506">
<rect width="32" height="32" fill="white"/>
</clipPath>
</defs>
</svg>
