<svg width="32" height="32" viewBox="0 0 32 32" fill="none" xmlns="http://www.w3.org/2000/svg">
<g clip-path="url(#clip0_847_442)">
<path d="M31.8476 15.9238C31.8476 7.12932 24.7183 0 15.9238 0C7.12932 0 0 7.12932 0 15.9238C0 24.7183 7.12932 31.8476 15.9238 31.8476C24.7183 31.8476 31.8476 24.7183 31.8476 15.9238Z" fill="#FF602C"/>
<path d="M13.2735 15.9646C13.2735 14.4976 14.4621 13.3081 15.9287 13.3081C17.3952 13.3081 18.5844 14.4976 18.5844 15.9646C18.5844 17.4316 17.3952 18.6211 15.9287 18.6211C14.4621 18.6211 13.2735 17.4316 13.2735 15.9646ZM11.8379 15.9646C11.8379 18.2246 13.6693 20.0565 15.9287 20.0565C18.188 20.0565 20.0194 18.2246 20.0194 15.9646C20.0194 13.7046 18.188 11.8726 15.9287 11.8726C13.6693 11.8726 11.8379 13.7046 11.8379 15.9646ZM19.2254 11.7104C19.2253 11.8995 19.2813 12.0844 19.3863 12.2417C19.4913 12.399 19.6406 12.5216 19.8152 12.5941C19.9898 12.6665 20.1821 12.6856 20.3675 12.6487C20.553 12.6119 20.7234 12.5209 20.8571 12.3872C20.9909 12.2535 21.082 12.0832 21.1189 11.8977C21.1559 11.7122 21.1371 11.5199 21.0648 11.3451C20.9925 11.1704 20.87 11.021 20.7128 10.9158C20.5557 10.8107 20.3708 10.7545 20.1818 10.7545H20.1814C19.928 10.7546 19.6849 10.8553 19.5057 11.0346C19.3264 11.2138 19.2256 11.4569 19.2254 11.7104ZM12.7101 22.4511C11.9334 22.4157 11.5112 22.2863 11.2307 22.177C10.8587 22.0322 10.5933 21.8596 10.3143 21.5809C10.0353 21.3022 9.86257 21.037 9.71843 20.6649C9.60904 20.3844 9.47968 19.962 9.44438 19.1851C9.40573 18.3451 9.39801 18.0928 9.39801 15.9646C9.39801 13.8365 9.40636 13.5849 9.44438 12.7442C9.47971 11.9673 9.61008 11.5457 9.71843 11.2643C9.86323 10.8923 10.0357 10.6268 10.3143 10.3477C10.593 10.0686 10.8581 9.89585 11.2307 9.75164C11.5111 9.64225 11.9334 9.51282 12.7101 9.47752C13.5499 9.43888 13.8021 9.43115 15.9287 9.43115C18.0552 9.43115 18.3077 9.43954 19.1481 9.47752C19.9249 9.51289 20.3463 9.64326 20.6276 9.75164C20.9995 9.89585 21.2649 10.069 21.544 10.3477C21.823 10.6265 21.9951 10.8923 22.1399 11.2643C22.2492 11.5449 22.3786 11.9673 22.4139 12.7442C22.4525 13.5849 22.4602 13.8365 22.4602 15.9646C22.4602 18.0928 22.4525 18.3444 22.4139 19.1851C22.3785 19.962 22.2485 20.3843 22.1399 20.6649C21.9951 21.037 21.8226 21.3025 21.544 21.5809C21.2653 21.8594 20.9995 22.0322 20.6276 22.177C20.3472 22.2864 19.9249 22.4158 19.1481 22.4511C18.3084 22.4898 18.0561 22.4975 15.9287 22.4975C13.8012 22.4975 13.5496 22.4898 12.7101 22.4511ZM12.6442 8.04388C11.7961 8.08249 11.2165 8.21703 10.7104 8.41401C10.1863 8.61745 9.74257 8.89035 9.29916 9.33317C8.85578 9.77599 8.58364 10.2205 8.38027 10.7448C8.18333 11.2514 8.04886 11.8308 8.01022 12.6791C7.97098 13.5288 7.96198 13.8005 7.96198 15.9646C7.96198 18.1287 7.97098 18.4003 8.01022 19.25C8.04886 20.0984 8.18333 20.6778 8.38027 21.1843C8.58364 21.7083 8.85585 22.1533 9.29916 22.596C9.7425 23.0386 10.1863 23.3112 10.7104 23.5152C11.2175 23.7122 11.7961 23.8467 12.6442 23.8853C13.494 23.9239 13.7652 23.9336 15.9287 23.9336C18.0922 23.9336 18.3637 23.9246 19.2131 23.8853C20.0613 23.8467 20.6405 23.7122 21.1469 23.5152C21.6707 23.3112 22.1147 23.0388 22.5581 22.596C23.0015 22.1532 23.2731 21.7083 23.477 21.1843C23.674 20.6778 23.8091 20.0984 23.8471 19.25C23.8857 18.3997 23.8947 18.1287 23.8947 15.9646C23.8947 13.8005 23.8857 13.5288 23.8471 12.6791C23.8084 11.8307 23.674 11.2511 23.477 10.7448C23.2731 10.2209 23.0008 9.77672 22.5581 9.33317C22.1154 8.88966 21.6707 8.61745 21.1475 8.41401C20.6405 8.21703 20.0612 8.08187 19.2138 8.04388C18.3643 8.00524 18.0928 7.99561 15.9293 7.99561C13.7658 7.99561 13.494 8.00458 12.6442 8.04388Z" fill="white"/>
</g>
<defs>
<clipPath id="clip0_847_442">
<rect width="32" height="32" fill="white"/>
</clipPath>
</defs>
</svg>
