<svg width="20" height="22" viewBox="0 0 20 22" fill="none" xmlns="http://www.w3.org/2000/svg">
<g clip-path="url(#clip0_740_8455)">
<path d="M17.8571 9.62492H17.1429V6.93937C17.1429 3.14093 13.9688 0.0128087 10.0223 -8.18772e-05C6.07143 -0.0129725 2.85714 3.07648 2.85714 6.87492V9.62492H2.14286C0.959821 9.62492 0 10.5487 0 11.6874V19.9374C0 21.0761 0.959821 21.9999 2.14286 21.9999H17.8571C19.0402 21.9999 20 21.0761 20 19.9374V11.6874C20 10.5487 19.0402 9.62492 17.8571 9.62492ZM4.28571 6.87492C4.28571 3.84132 6.84821 1.37492 10 1.37492C13.1518 1.37492 15.7143 3.84132 15.7143 6.87492V9.62492H4.28571V6.87492ZM17.8571 20.6249H2.14286C1.75 20.6249 1.42857 20.3155 1.42857 19.9374V11.6874C1.42857 11.3093 1.75 10.9999 2.14286 10.9999H17.8571C18.25 10.9999 18.5714 11.3093 18.5714 11.6874V19.9374C18.5714 20.3155 18.25 20.6249 17.8571 20.6249Z" fill="white"/>
</g>
<defs>
<clipPath id="clip0_740_8455">
<rect width="20" height="22" fill="white"/>
</clipPath>
</defs>
</svg>
