<svg width="20" height="23" viewBox="0 0 20 23" fill="none" xmlns="http://www.w3.org/2000/svg">
<g clip-path="url(#clip0_742_8553)">
<path d="M13.2143 4.46973L19.8438 11.1182C20.0536 11.3293 20.0536 11.6707 19.8438 11.8818L13.2143 18.5303C13.0045 18.7414 12.6652 18.7414 12.4554 18.5303L12.1384 18.2113C11.9286 18.0002 11.9286 17.6588 12.1384 17.4477L17.317 12.2637H3.39286C3.09821 12.2637 2.85714 12.0211 2.85714 11.7246V11.2754C2.85714 10.9789 3.09821 10.7363 3.39286 10.7363H17.317L12.1429 5.55234C11.933 5.34121 11.933 4.9998 12.1429 4.78867L12.4598 4.46973C12.6652 4.25859 13.0045 4.25859 13.2143 4.46973ZM0.535714 20.125H0.892857C1.1875 20.125 1.42857 19.8824 1.42857 19.5859V3.41406C1.42857 3.11758 1.1875 2.875 0.892857 2.875H0.535714C0.241071 2.875 0 3.11758 0 3.41406V19.5859C0 19.8824 0.241071 20.125 0.535714 20.125Z" fill="#FF602C"/>
</g>
<defs>
<clipPath id="clip0_742_8553">
<rect width="20" height="23" fill="white"/>
</clipPath>
</defs>
</svg>
