<svg width="20" height="20" viewBox="0 0 20 20" fill="none" xmlns="http://www.w3.org/2000/svg">
<g clip-path="url(#clip0_742_8551)">
<path d="M19.2674 2.19766L17.8021 0.732422C17.3142 0.244141 16.6744 0 16.0346 0C15.3947 0 14.7549 0.244141 14.2666 0.732031L0.501748 14.4969L0.00565423 18.9586C-0.0568458 19.5203 0.385732 20 0.935342 20C0.970107 20 1.00487 19.998 1.04042 19.9941L5.49901 19.5016L19.2678 5.73281C20.2439 4.75664 20.2439 3.17383 19.2674 2.19766ZM4.92519 18.3078L1.2912 18.7105L1.69589 15.0711L12.0041 4.76289L15.2373 7.99609L4.92519 18.3078ZM18.3838 4.84922L16.1209 7.11211L12.8877 3.87891L15.1506 1.61602C15.3865 1.38008 15.7006 1.25 16.0346 1.25C16.3685 1.25 16.6822 1.38008 16.9185 1.61602L18.3838 3.08125C18.8709 3.56875 18.8709 4.36172 18.3838 4.84922Z" fill="#FF602C"/>
</g>
<defs>
<clipPath id="clip0_742_8551">
<rect width="20" height="20" fill="white"/>
</clipPath>
</defs>
</svg>
