<svg width="24" height="24" viewBox="0 0 24 24" fill="none" xmlns="http://www.w3.org/2000/svg">
<g clip-path="url(#clip0_696_13402)">
<path d="M23.128 1.15302L18.253 0.0280215C17.7233 -0.0938534 17.1796 0.182709 16.964 0.679584L14.714 5.92958C14.5171 6.38896 14.6483 6.92802 15.0374 7.24208L17.878 9.56708C16.1905 13.1624 13.2421 16.153 9.57178 17.8733L7.24679 15.0327C6.92804 14.6436 6.39366 14.5124 5.93429 14.7093L0.684285 16.9593C0.182723 17.1796 -0.0938397 17.7233 0.0280353 18.253L1.15304 23.128C1.27022 23.6343 1.72022 23.9999 2.24991 23.9999C14.2546 23.9999 23.9999 14.2733 23.9999 2.2499C23.9999 1.7249 23.639 1.27021 23.128 1.15302Z" fill="white"/>
</g>
<defs>
<clipPath id="clip0_696_13402">
<rect width="24" height="24" fill="white"/>
</clipPath>
</defs>
</svg>
