<svg width="28" height="28" viewBox="0 0 28 28" fill="none" xmlns="http://www.w3.org/2000/svg">
<rect width="27.9169" height="28" rx="4" fill="#FF9100"/>
<path d="M24.5877 13.225L20.239 9.05258C20.239 9.05169 20.2399 9.05077 20.2399 9.04988V5.44982C20.2399 5.20142 20.0389 4.9998 19.7912 4.9998H17.9964C17.7487 4.9998 17.5477 5.20142 17.5477 5.44982V6.47043L14.2687 3.3249C14.0955 3.15838 13.8218 3.15838 13.6486 3.3249L3.32869 13.225C3.19677 13.3519 3.15458 13.5472 3.22281 13.7173C3.291 13.8883 3.45614 13.9999 3.63921 13.9999H5.88266V24.35C5.88266 24.5984 6.08368 24.8 6.33136 24.8H13.9591V18.0499C13.9591 17.8015 14.1601 17.5999 14.4078 17.5999H18.8948C19.1424 17.5999 19.3435 17.8015 19.3435 18.0499V24.8H21.5869C21.8346 24.8 22.0356 24.5984 22.0356 24.35V13.9999H24.2791C24.4621 13.9999 24.6272 13.8883 24.6955 13.7173C24.7618 13.5472 24.7196 13.3519 24.5877 13.225ZM12.1626 19.8499C12.1626 20.0983 11.9615 20.3 11.7139 20.3H8.12434C7.87666 20.3 7.67563 20.0983 7.67563 19.8499V16.2499C7.67563 16.0015 7.87666 15.7999 8.12434 15.7999H11.7139C11.9615 15.7999 12.1626 16.0015 12.1626 16.2499V19.8499ZM13.9573 11.2999C12.9675 11.2999 12.1625 10.4926 12.1625 9.49986C12.1625 8.50713 12.9675 7.69983 13.9573 7.69983C14.9471 7.69983 15.7521 8.50713 15.7521 9.49986C15.7521 10.4926 14.9471 11.2999 13.9573 11.2999Z" fill="white"/>
</svg>
