<svg width="20" height="20" viewBox="0 0 20 20" fill="none" xmlns="http://www.w3.org/2000/svg">
<path d="M17.0237 13.1578C17.0237 12.3909 16.5244 11.739 15.8341 11.5085V0.615234L15.2742 0.62645C12.3745 0.68367 9.61788 1.81355 7.51217 3.80779C5.49995 5.71358 4.24419 8.25588 3.94905 11.0018C3.77041 11.1068 3.60195 11.2359 3.4486 11.3893C2.97619 11.8616 2.71618 12.4897 2.71618 13.1578C2.71618 13.1651 2.71652 13.1725 2.71652 13.1799C2.714 13.2044 2.7124 19.3652 2.7124 19.3652H6.18946V15.4613C6.479 15.3397 6.75022 15.1617 6.98563 14.9262C7.33284 14.5789 7.55566 14.1538 7.65568 13.7067H8.53287V15.09H9.63081V12.6088H7.65568C7.55566 12.1616 7.33284 11.7366 6.98551 11.3893C6.861 11.2646 6.72642 11.1564 6.58451 11.0637C7.02843 10.7767 7.4324 10.4252 7.78076 10.0174C8.62682 9.02676 9.09294 7.76276 9.09294 6.45813C9.09294 6.14159 9.06502 5.82676 9.01112 5.51697C9.49543 5.65372 9.99874 5.72491 10.5065 5.72491C10.6699 5.72491 10.8338 5.71758 10.9977 5.70293C12.2952 5.58643 13.5123 5.00862 14.4245 4.07604C14.5337 3.96446 14.6373 3.84808 14.7361 3.72814V11.5085C14.0457 11.739 13.5465 12.3909 13.5465 13.1578C13.5465 13.9246 14.0457 14.5765 14.7361 14.8069V17.6843C14.7361 18.0057 14.4746 18.2672 14.1532 18.2672C13.8317 18.2672 13.5702 18.0057 13.5702 17.6843V16.2421H12.4722V17.6843C12.4722 18.6112 13.2262 19.3652 14.1532 19.3652C15.08 19.3652 15.8341 18.6112 15.8341 17.6843V14.8069C16.5244 14.5765 17.0237 13.9246 17.0237 13.1578ZM15.2851 13.7983C14.9319 13.7983 14.6446 13.5109 14.6446 13.1578C14.6446 12.8046 14.9319 12.5172 15.2851 12.5172C15.6382 12.5172 15.9256 12.8046 15.9256 13.1578C15.9256 13.5109 15.6382 13.7983 15.2851 13.7983ZM5.21706 12.6088V13.7067H6.50784C6.43951 13.8677 6.34018 14.0187 6.20915 14.1498C5.66212 14.6968 4.77211 14.6968 4.22508 14.1498C3.95992 13.8848 3.81401 13.5324 3.81401 13.1578C3.81401 12.7831 3.95992 12.4307 4.22508 12.1656C4.4986 11.8921 4.85771 11.7554 5.21706 11.7554C5.57629 11.7554 5.93563 11.8922 6.20915 12.1656C6.34018 12.2968 6.43963 12.4477 6.50784 12.6088H5.21706ZM3.81046 15.2252C4.19716 15.4885 4.64165 15.6318 5.0914 15.6544V18.2672H3.81046V15.2252ZM6.94592 9.30428C6.4513 9.88312 5.81753 10.3205 5.11292 10.578C5.44113 8.52734 6.3657 6.62521 7.77916 5.09903C7.92107 5.53562 7.99488 5.99453 7.99488 6.45813C7.995 7.5016 7.62238 8.51234 6.94592 9.30428ZM13.6397 3.30826C12.9101 4.05418 11.9369 4.51618 10.8995 4.60934C10.136 4.678 9.37126 4.54514 8.6837 4.23168C10.3589 2.80506 12.4291 1.94344 14.6195 1.75964C14.407 2.33597 14.0732 2.86503 13.6397 3.30826Z" fill="#FF602C"/>
</svg>
