<svg width="28" height="28" viewBox="0 0 28 28" fill="none" xmlns="http://www.w3.org/2000/svg">
<rect width="28" height="28" rx="4" fill="#FF602C"/>
<path fill-rule="evenodd" clip-rule="evenodd" d="M8.24 8.59964C8.24011 7.56042 8.56005 6.5433 9.16145 5.67033C9.76285 4.79736 10.6202 4.10561 11.6305 3.67811C12.6408 3.2506 13.7613 3.10549 14.8574 3.26018C15.9535 3.41487 16.9788 3.8628 17.8101 4.55021C18.6414 5.23763 19.2435 6.13533 19.5441 7.1356C19.8448 8.13587 19.8311 9.19622 19.5049 10.1894C19.1787 11.1826 18.5537 12.0665 17.705 12.7349C16.8562 13.4034 15.8198 13.828 14.72 13.9579V21.4249C14.72 21.604 14.6441 21.7757 14.5091 21.9022C14.3741 22.0288 14.191 22.0999 14 22.0999C13.809 22.0999 13.6259 22.0288 13.4909 21.9022C13.3559 21.7757 13.28 21.604 13.28 21.4249V13.9593C11.8875 13.7948 10.6069 13.1593 9.67887 12.1721C8.75083 11.185 8.23917 9.91548 8.24 8.59964ZM11.8299 20.1748C11.8612 20.3513 11.8164 20.5322 11.7054 20.6778C11.5944 20.8233 11.4263 20.9216 11.2381 20.9511C10.2128 21.1104 9.39488 21.3493 8.85488 21.6166C8.65651 21.706 8.47623 21.8271 8.32208 21.9744C8.28724 22.01 8.25944 22.0511 8.24 22.0959V22.0999L8.24288 22.1108C8.24855 22.1264 8.25629 22.1414 8.26592 22.1553C8.32276 22.2334 8.39337 22.3019 8.47472 22.3578C8.71232 22.5333 9.10112 22.7223 9.64544 22.8911C10.7269 23.2286 12.2662 23.45 14 23.45C15.7338 23.45 17.2731 23.2299 18.3546 22.8911C18.8989 22.721 19.2877 22.5333 19.5253 22.3578C19.6071 22.302 19.6782 22.2335 19.7355 22.1553C19.7446 22.1413 19.7519 22.1264 19.7571 22.1108L19.76 22.0999V22.0945C19.7406 22.0498 19.7128 22.0086 19.6779 21.973C19.5237 21.8262 19.3434 21.7056 19.1451 21.6166C18.6037 21.3493 17.7872 21.1104 16.7619 20.9511C16.6664 20.9389 16.5745 20.909 16.4916 20.8629C16.4087 20.8168 16.3364 20.7556 16.2792 20.6829C16.222 20.6102 16.1809 20.5275 16.1585 20.4396C16.136 20.3517 16.1325 20.2605 16.1484 20.1714C16.1642 20.0823 16.1989 19.997 16.2505 19.9207C16.3021 19.8444 16.3695 19.7786 16.4488 19.7272C16.528 19.6757 16.6175 19.6397 16.7118 19.6213C16.8062 19.6029 16.9035 19.6024 16.9981 19.6199C18.1069 19.7914 19.089 20.0628 19.8162 20.4219C20.48 20.7499 21.2 21.2899 21.2 22.0999C21.2 22.6751 20.8256 23.1152 20.4166 23.4189C19.999 23.7267 19.4374 23.9765 18.8096 24.1722C17.5453 24.5678 15.8446 24.8 14 24.8C12.1554 24.8 10.4547 24.5678 9.1904 24.1722C8.56256 23.9765 8.00096 23.7267 7.58336 23.4189C7.1744 23.1152 6.8 22.6751 6.8 22.0999C6.8 21.2913 7.52 20.7499 8.18384 20.4219C8.91104 20.0628 9.89312 19.7914 11.0019 19.6199C11.1902 19.5907 11.3832 19.6327 11.5384 19.7367C11.6937 19.8407 11.7985 19.9983 11.8299 20.1748Z" fill="white"/>
</svg>
