<svg width="38" height="38" viewBox="0 0 38 38" fill="none" xmlns="http://www.w3.org/2000/svg">
<circle cx="19" cy="19" r="19" fill="#222222"/>
<g clip-path="url(#clip0_844_188)">
<rect width="24" height="24" transform="translate(7 7)" fill="#222222"/>
<path d="M19 13C19.2652 13 19.5196 12.8946 19.7071 12.7071C19.8946 12.5196 20 12.2652 20 12V10C20 9.73478 19.8946 9.48043 19.7071 9.29289C19.5196 9.10536 19.2652 9 19 9C18.7348 9 18.4804 9.10536 18.2929 9.29289C18.1054 9.48043 18 9.73478 18 10V12C18 12.2652 18.1054 12.5196 18.2929 12.7071C18.4804 12.8946 18.7348 13 19 13Z" fill="#FF602C"/>
<path d="M28 18H26C25.7348 18 25.4804 18.1054 25.2929 18.2929C25.1054 18.4804 25 18.7348 25 19C25 19.2652 25.1054 19.5196 25.2929 19.7071C25.4804 19.8946 25.7348 20 26 20H28C28.2652 20 28.5196 19.8946 28.7071 19.7071C28.8946 19.5196 29 19.2652 29 19C29 18.7348 28.8946 18.4804 28.7071 18.2929C28.5196 18.1054 28.2652 18 28 18Z" fill="#FF602C"/>
<path d="M13 19C13 18.7348 12.8946 18.4804 12.7071 18.2929C12.5196 18.1054 12.2652 18 12 18H10C9.73478 18 9.48043 18.1054 9.29289 18.2929C9.10536 18.4804 9 18.7348 9 19C9 19.2652 9.10536 19.5196 9.29289 19.7071C9.48043 19.8946 9.73478 20 10 20H12C12.2652 20 12.5196 19.8946 12.7071 19.7071C12.8946 19.5196 13 19.2652 13 19Z" fill="#FF602C"/>
<path d="M13.22 12C13.0251 11.8157 12.7649 11.7163 12.4967 11.7238C12.2285 11.7313 11.9743 11.8451 11.79 12.04C11.6057 12.2349 11.5063 12.4951 11.5138 12.7633C11.5213 13.0315 11.6351 13.2857 11.83 13.47L13.27 14.86C13.3666 14.9533 13.4811 15.0262 13.6065 15.0743C13.7319 15.1224 13.8657 15.1448 14 15.14C14.1347 15.1395 14.2679 15.1118 14.3916 15.0585C14.5154 15.0052 14.627 14.9275 14.72 14.83C14.9062 14.6426 15.0108 14.3892 15.0108 14.125C15.0108 13.8608 14.9062 13.6074 14.72 13.42L13.22 12Z" fill="#FF602C"/>
<path d="M24 15.14C24.2575 15.139 24.5046 15.0387 24.69 14.86L26.13 13.47C26.3057 13.2864 26.4049 13.0429 26.4075 12.7889C26.4101 12.5348 26.3159 12.2893 26.1441 12.1022C25.9722 11.915 25.7356 11.8003 25.4822 11.7814C25.2289 11.7624 24.9778 11.8406 24.78 12L23.34 13.42C23.1537 13.6074 23.0492 13.8608 23.0492 14.125C23.0492 14.3892 23.1537 14.6426 23.34 14.83C23.5131 15.0127 23.7488 15.1234 24 15.14Z" fill="#FF602C"/>
<path d="M19 25C18.7348 25 18.4804 25.1054 18.2929 25.2929C18.1054 25.4804 18 25.7348 18 26V28C18 28.2652 18.1054 28.5196 18.2929 28.7071C18.4804 28.8946 18.7348 29 19 29C19.2652 29 19.5196 28.8946 19.7071 28.7071C19.8946 28.5196 20 28.2652 20 28V26C20 25.7348 19.8946 25.4804 19.7071 25.2929C19.5196 25.1054 19.2652 25 19 25Z" fill="#FF602C"/>
<path d="M24.73 23.14C24.5391 22.9557 24.2827 22.8548 24.0173 22.8595C23.752 22.8642 23.4993 22.9741 23.315 23.165C23.1307 23.356 23.0298 23.6123 23.0345 23.8777C23.0391 24.1431 23.1491 24.3957 23.34 24.58L24.78 26C24.9654 26.1787 25.2125 26.279 25.47 26.28C25.604 26.2808 25.7368 26.2547 25.8605 26.2031C25.9842 26.1516 26.0962 26.0757 26.19 25.98C26.2837 25.8871 26.3581 25.7765 26.4089 25.6546C26.4597 25.5327 26.4858 25.402 26.4858 25.27C26.4858 25.138 26.4597 25.0073 26.4089 24.8855C26.3581 24.7636 26.2837 24.653 26.19 24.56L24.73 23.14Z" fill="#FF602C"/>
<path d="M13.27 23.14L11.83 24.53C11.7362 24.623 11.6619 24.7336 11.6111 24.8554C11.5603 24.9773 11.5342 25.108 11.5342 25.24C11.5342 25.372 11.5603 25.5027 11.6111 25.6246C11.6619 25.7464 11.7362 25.857 11.83 25.95C11.9238 26.0457 12.0358 26.1216 12.1595 26.1731C12.2832 26.2246 12.416 26.2508 12.55 26.25C12.7965 26.2521 13.0351 26.1631 13.22 26L14.66 24.61C14.8509 24.4257 14.9608 24.173 14.9655 23.9077C14.9702 23.6423 14.8693 23.3859 14.685 23.195C14.5007 23.004 14.248 22.8941 13.9827 22.8894C13.7173 22.8848 13.4609 22.9857 13.27 23.17V23.14Z" fill="#FF602C"/>
<path d="M19 15C18.2089 15 17.4355 15.2346 16.7777 15.6741C16.1199 16.1136 15.6072 16.7384 15.3045 17.4693C15.0017 18.2002 14.9225 19.0044 15.0769 19.7804C15.2312 20.5563 15.6122 21.269 16.1716 21.8284C16.731 22.3878 17.4437 22.7688 18.2196 22.9231C18.9956 23.0775 19.7998 22.9983 20.5307 22.6955C21.2616 22.3928 21.8864 21.8801 22.3259 21.2223C22.7654 20.5645 23 19.7911 23 19C23 17.9391 22.5786 16.9217 21.8284 16.1716C21.0783 15.4214 20.0609 15 19 15Z" fill="#FF602C"/>
</g>
<defs>
<clipPath id="clip0_844_188">
<rect width="24" height="24" fill="white" transform="translate(7 7)"/>
</clipPath>
</defs>
</svg>
