<svg width="20" height="20" viewBox="0 0 20 20" fill="none" xmlns="http://www.w3.org/2000/svg">
<path d="M15.5556 3.25V1.42188C15.5556 1.18984 15.3681 1 15.1389 1H4.86111C4.63194 1 4.44444 1.18984 4.44444 1.42188V3.25H0.416667C0.1875 3.25 0 3.43984 0 3.67188V5.8375C0 8.0207 2.36458 10.5625 5.57986 11.0441C6.60069 13.1781 8.13889 14.2188 9.44444 14.4508V17.875H6.45833C5.95833 17.875 5.55556 18.2863 5.55556 18.7926C5.55556 18.9086 5.64931 19 5.76389 19H14.2361C14.3507 19 14.4444 18.9086 14.4444 18.7926C14.4444 18.2863 14.0417 17.875 13.5417 17.875H10.5556V14.4508C11.8646 14.2188 13.3993 13.1781 14.4201 11.0441C17.6389 10.5625 20 8.01719 20 5.8375V3.67188C20 3.43984 19.8125 3.25 19.5833 3.25H15.5556ZM1.11111 5.8375V4.375H4.44444V5.21875C4.44444 7.03984 4.6875 8.55508 5.08681 9.79609C2.70486 9.17383 1.11111 7.25781 1.11111 5.8375ZM10 13.375C7.5 13.375 5.55556 9.71875 5.55556 5.21875V2.125H14.4444V5.21875C14.4444 9.71875 12.5 13.375 10 13.375ZM18.8889 5.8375C18.8889 7.25781 17.2917 9.17383 14.9132 9.79609C15.3125 8.55508 15.5556 7.03984 15.5556 5.21875V4.375H18.8889V5.8375Z" fill="#FF602C"/>
</svg>
