<svg width="20" height="20" viewBox="0 0 20 20" fill="none" xmlns="http://www.w3.org/2000/svg">
<g clip-path="url(#clip0_744_8931)">
<path d="M17.6562 16.875C17.6562 17.3047 17.3047 17.6562 16.875 17.6562C16.4453 17.6562 16.0938 17.3047 16.0938 16.875C16.0938 16.4453 16.4453 16.0938 16.875 16.0938C17.3047 16.0938 17.6562 16.4453 17.6562 16.875ZM14.375 16.0938C13.9453 16.0938 13.5938 16.4453 13.5938 16.875C13.5938 17.3047 13.9453 17.6562 14.375 17.6562C14.8047 17.6562 15.1562 17.3047 15.1562 16.875C15.1562 16.4453 14.8047 16.0938 14.375 16.0938ZM20 14.2188V18.2812C20 19.2305 19.2305 20 18.2812 20H1.71875C0.769531 20 0 19.2305 0 18.2812V14.2188C0 13.2695 0.769531 12.5 1.71875 12.5H6.5625V8.62109H4.50391C3.11328 8.62109 2.41797 6.9375 3.39844 5.95312L8.89453 0.457031C9.50391 -0.152344 10.4922 -0.152344 11.1055 0.457031L16.6016 5.95312C17.5859 6.9375 16.8867 8.62109 15.4961 8.62109H13.4375V12.5H18.2812C19.2305 12.5 20 13.2695 20 14.2188ZM7.8125 7.37109V14.6875C7.8125 14.8594 7.95312 15 8.125 15H11.875C12.0469 15 12.1875 14.8594 12.1875 14.6875V7.37109H15.4961C15.7734 7.37109 15.9141 7.03516 15.7188 6.83594L10.2227 1.33984C10.1016 1.21875 9.90234 1.21875 9.78125 1.33984L4.28516 6.83594C4.08984 7.03125 4.22656 7.37109 4.50781 7.37109H7.8125ZM18.75 14.2188C18.75 13.9609 18.5391 13.75 18.2812 13.75H13.4375V14.6875C13.4375 15.5508 12.7383 16.25 11.875 16.25H8.125C7.26172 16.25 6.5625 15.5508 6.5625 14.6875V13.75H1.71875C1.46094 13.75 1.25 13.9609 1.25 14.2188V18.2812C1.25 18.5391 1.46094 18.75 1.71875 18.75H18.2812C18.5391 18.75 18.75 18.5391 18.75 18.2812V14.2188Z" fill="#FF602C"/>
</g>
<defs>
<clipPath id="clip0_744_8931">
<rect width="20" height="20" fill="white"/>
</clipPath>
</defs>
</svg>
