<svg width="17" height="18" viewBox="0 0 17 18" fill="none" xmlns="http://www.w3.org/2000/svg">
<path d="M11.1279 9.50292C11.8224 8.95656 12.3292 8.20733 12.578 7.35947C12.8268 6.51161 12.8052 5.60728 12.5161 4.7723C12.227 3.93731 11.6848 3.2132 10.965 2.7007C10.2453 2.18819 9.38361 1.91278 8.5 1.91278C7.61639 1.91278 6.75475 2.18819 6.03495 2.7007C5.31515 3.2132 4.77299 3.93731 4.4839 4.7723C4.1948 5.60728 4.17315 6.51161 4.42195 7.35947C4.67075 8.20733 5.17764 8.95656 5.87208 9.50292C4.68214 9.97966 3.64387 10.7704 2.86796 11.7908C2.09206 12.8112 1.6076 14.023 1.46625 15.2971C1.45602 15.3901 1.46421 15.4842 1.49035 15.5741C1.51649 15.6639 1.56008 15.7478 1.61862 15.8208C1.73684 15.9682 1.9088 16.0627 2.09666 16.0833C2.28453 16.104 2.4729 16.0492 2.62035 15.931C2.7678 15.8127 2.86225 15.6408 2.88291 15.4529C3.03845 14.0683 3.69869 12.7895 4.73749 11.8608C5.77628 10.9322 7.1208 10.4188 8.51417 10.4188C9.90753 10.4188 11.252 10.9322 12.2908 11.8608C13.3296 12.7895 13.9899 14.0683 14.1454 15.4529C14.1647 15.627 14.2477 15.7877 14.3785 15.9041C14.5093 16.0206 14.6786 16.0844 14.8537 16.0833H14.9317C15.1173 16.062 15.2871 15.9681 15.4038 15.8221C15.5206 15.6762 15.5749 15.49 15.555 15.3042C15.413 14.0265 14.9259 12.8115 14.146 11.7896C13.3661 10.7676 12.3228 9.97714 11.1279 9.50292ZM8.5 9.00001C7.93962 9.00001 7.39182 8.83384 6.92588 8.5225C6.45994 8.21117 6.09679 7.76867 5.88234 7.25094C5.66789 6.73322 5.61178 6.16353 5.72111 5.61392C5.83043 5.06431 6.10028 4.55945 6.49653 4.1632C6.89278 3.76696 7.39763 3.49711 7.94724 3.38778C8.49686 3.27846 9.06654 3.33457 9.58427 3.54902C10.102 3.76346 10.5445 4.12662 10.8558 4.59256C11.1672 5.0585 11.3333 5.60629 11.3333 6.16667C11.3333 6.91812 11.0348 7.63879 10.5035 8.17014C9.97211 8.7015 9.25145 9.00001 8.5 9.00001Z" fill="#222222"/>
</svg>
