<svg width="25" height="28" viewBox="0 0 25 28" fill="none" xmlns="http://www.w3.org/2000/svg">
<rect width="24.7939" height="28" rx="4" fill="#FFC400"/>
<path d="M6.52781 5.45074C7.23137 5.45074 7.80417 6.14074 7.80417 6.98824C7.80417 7.83574 7.23137 8.52574 6.52781 8.52574C5.82426 8.52574 5.25145 7.83574 5.25145 6.98824C5.25145 6.14074 5.82426 5.45074 6.52781 5.45074ZM8.13416 8.92324H4.94637C4.06226 8.92324 3.35248 9.77824 3.35248 10.8432V15.5382C3.35248 15.9057 3.5953 16.2132 3.91283 16.2132C4.23036 16.2132 4.47318 15.9207 4.47318 15.5382V11.2257C4.47318 11.1207 4.5479 11.0307 4.63506 11.0307C4.72223 11.0307 4.79694 11.1207 4.79694 11.2257V22.8657C4.79694 23.4432 5.15183 23.9157 5.59389 23.9157C6.03595 23.9157 6.39084 23.4432 6.39084 22.8657V16.2282C6.39084 16.1232 6.46555 16.0332 6.55272 16.0332C6.63988 16.0332 6.7146 16.1232 6.7146 16.2282V22.8657C6.7146 23.4432 7.06949 23.9157 7.51154 23.9157C7.9536 23.9157 8.30849 23.4432 8.30849 22.8657V11.2257C8.30849 11.1207 8.3832 11.0307 8.47037 11.0307C8.55753 11.0307 8.63225 11.1207 8.63225 11.2257V15.5457C8.63225 15.9132 8.87507 16.2207 9.1926 16.2207C9.51013 16.2207 9.75295 15.9282 9.75295 15.5457V10.8432C9.72805 9.77824 8.99959 8.92324 8.13416 8.92324Z" fill="white"/>
<g clip-path="url(#clip0_405_3749)">
<path d="M18.7897 8.48254C19.6862 8.48254 20.3338 9.39252 20.4583 9.90149L21.5541 14.3743C21.7782 15.3305 20.782 15.7315 20.5454 14.7907L19.5493 10.6881H19.0014L20.6575 17.9833H19.0761V23.6746C19.0761 24.6463 17.8931 24.6463 17.8931 23.6746V17.9371H17.2954V23.6592C17.2954 24.6463 16.1124 24.6463 16.1124 23.6592V17.9833H14.531L16.1747 10.6881H15.6268L14.6431 14.8061C14.4065 15.7007 13.4103 15.3305 13.6344 14.3743L14.7302 9.90149C14.8423 9.39252 15.3653 8.48254 16.2743 8.48254H18.7897Z" fill="white"/>
<path d="M17.5942 8.14322C18.304 8.14322 18.8768 7.43375 18.8768 6.55461C18.8768 5.67548 18.304 4.966 17.5942 4.966C16.8844 4.966 16.3241 5.67548 16.3241 6.55461C16.3241 7.43375 16.8844 8.14322 17.5942 8.14322Z" fill="white"/>
</g>
<rect x="11.3344" y="4.83276" width="1.0626" height="19.2" rx="0.531298" fill="white"/>
<defs>
<clipPath id="clip0_405_3749">
<rect width="8.50076" height="20.4" fill="white" transform="translate(13.4596 4.40002)"/>
</clipPath>
</defs>
</svg>
